<svg id="visual" viewBox="0 0 540 960" width="540" height="960" xmlns="http://www.w3.org/2000/svg" xmlns:xlink="http://www.w3.org/1999/xlink" version="1.1"><rect x="0" y="0" width="540" height="960" fill="#FFFFFF"></rect><defs><linearGradient id="grad1_0" x1="0%" y1="0%" x2="100%" y2="100%"><stop offset="30%" stop-color="#ffffff" stop-opacity="1"></stop><stop offset="70%" stop-color="#ffffff" stop-opacity="1"></stop></linearGradient></defs><defs><linearGradient id="grad2_0" x1="0%" y1="0%" x2="100%" y2="100%"><stop offset="30%" stop-color="#ffffff" stop-opacity="1"></stop><stop offset="70%" stop-color="#ffffff" stop-opacity="1"></stop></linearGradient></defs><g transform="translate(540, 0)"><path d="M0 270C-33.1 274 -66.2 278 -83.4 256.8C-100.6 235.6 -102 189.2 -124.6 171.5C-147.3 153.9 -191.2 165 -209.5 152.2C-227.9 139.5 -220.5 102.9 -226.4 73.5C-232.2 44.2 -251.1 22.1 -270 0L0 0Z" fill="#F26522"></path></g><g transform="translate(0, 960)"><path d="M0 -270C23.6 -245.8 47.1 -221.6 67.4 -207.3C87.6 -193 104.6 -188.6 134.6 -185.3C164.6 -181.9 207.6 -179.6 218.4 -158.7C229.3 -137.8 207.9 -98.2 211.1 -68.6C214.4 -39 242.2 -19.5 270 0L0 0Z" fill="#F26522"></path></g></svg>