<svg id="visual" viewBox="0 0 960 540" width="960" height="540" xmlns="http://www.w3.org/2000/svg" xmlns:xlink="http://www.w3.org/1999/xlink" version="1.1"><rect x="0" y="0" width="960" height="540" fill="#FFFFFF"></rect><defs><linearGradient id="grad1_0" x1="43.8%" y1="0%" x2="100%" y2="100%"><stop offset="14.444444444444446%" stop-color="#ffffff" stop-opacity="1"></stop><stop offset="85.55555555555554%" stop-color="#ffffff" stop-opacity="1"></stop></linearGradient></defs><defs><linearGradient id="grad2_0" x1="0%" y1="0%" x2="56.3%" y2="100%"><stop offset="14.444444444444446%" stop-color="#ffffff" stop-opacity="1"></stop><stop offset="85.55555555555554%" stop-color="#ffffff" stop-opacity="1"></stop></linearGradient></defs><g transform="translate(960, 0)"><path d="M0 216C-28.8 214.2 -57.6 212.4 -82.7 199.6C-107.8 186.7 -129.2 162.9 -137.9 137.9C-146.6 112.9 -142.5 86.7 -153.4 63.5C-164.3 40.3 -190.1 20.2 -216 0L0 0Z" fill="#F26522"></path></g><g transform="translate(0, 540)"><path d="M0 -216C28.4 -213 56.8 -209.9 82.7 -199.6C108.6 -189.2 132 -171.5 150.6 -150.6C169.2 -129.7 183 -105.6 193.1 -80C203.2 -54.3 209.6 -27.2 216 0L0 0Z" fill="#F26522"></path></g></svg>